<?xml version="1.0" encoding="UTF-8" standalone="no"?>
<svg width="50px" height="50px" viewBox="0 0 50 50" version="1.1" xmlns="http://www.w3.org/2000/svg" xmlns:xlink="http://www.w3.org/1999/xlink">
    <!-- Generator: Sketch 39.1 (31720) - http://www.bohemiancoding.com/sketch -->
    <title>1484881191_online_social_media_tumblr</title>
    <desc>Created with Sketch.</desc>
    <defs></defs>
    <g id="Page-1" stroke="none" stroke-width="1" fill="none" fill-rule="evenodd">
        <g id="1484881191_online_social_media_tumblr">
            <g id="Flat_copy">
                <path d="M25,0 C11.1921875,0 0,11.1921875 0,25 C0,38.80625 11.1921875,50 25,50 C38.8078125,50 50,38.80625 50,25 C50,11.1921875 38.8078125,0 25,0 L25,0 Z" id="Shape" fill="#0AA3B6"></path>
                <path d="M25.2875,10.3046875 L25.2875,17.196875 L32.1796875,17.196875 L32.1796875,21.5046875 L25.2875,21.5046875 L25.2875,28.396875 C25.2875,29.996875 25.440625,31.2828125 25.609375,31.7375 C25.7796875,32.190625 26.09375,32.553125 26.55625,32.8265625 C27.16875,33.19375 27.865625,33.378125 28.653125,33.378125 C30.0515625,33.378125 31.678125,32.903125 33.0421875,31.84375 L33.0421875,36.1515625 C31.89375,36.8703125 30.5765625,37.315625 29.61875,37.5390625 C28.6625,37.7609375 27.628125,37.8734375 26.515625,37.8734375 C25.353125,37.8734375 24.23125,37.7453125 23.1671875,37.39375 C22.196875,37.075 21.6546875,36.721875 20.96875,36.1328125 C20.284375,35.5421875 19.9515625,34.9484375 19.6875,34.2828125 C19.4234375,33.6203125 19.25625,32.2421875 19.25625,30.9796875 L19.25625,21.503125 L15.8109375,21.503125 L15.8109375,17.1953125 C16.9140625,17.1140625 17.8265625,16.803125 18.596875,16.1484375 C19.3734375,15.4890625 19.99375,14.6984375 20.459375,13.7765625 C20.928125,12.853125 20.9796875,11.7234375 20.9796875,10.3046875 L25.2875,10.3046875 L25.2875,10.3046875 Z" id="Shape" fill="#FFFFFF"></path>
            </g>
        </g>
    </g>
</svg>