<svg width="50" height="50" viewBox="0 0 50 50">
  <g fill="none">
    <path fill="#0AA3B6" d="M25,50 C38.75,50 50,38.75 50,25 C50,11.25 38.75,0 25,0 C11.25,0 0,11.25 0,25 C0,38.75 11.25,50 25,50"/>
    <path fill="#FFF" d="M12.5,25 C12.5,30 15.3125,34.21875 19.53125,36.25 L13.59375,19.84375 C12.8125,21.40625 12.5,23.125 12.5,25 L12.5,25 Z M33.4375,24.375 C33.4375,22.8125 32.8125,21.71875 32.34375,20.9375 C31.71875,19.84375 31.09375,19.0625 31.09375,17.96875 C31.09375,16.875 32.03125,15.78125 33.125,15.78125 L33.28125,15.78125 C31.25,13.75 28.28125,12.5 25,12.5 C20.625,12.5 16.71875,14.6875 14.53125,18.125 L15.3125,18.125 C16.5625,18.125 18.59375,17.96875 18.59375,17.96875 C19.21875,17.96875 19.375,18.90625 18.59375,19.0625 C18.59375,19.0625 17.96875,19.0625 17.1875,19.21875 L21.71875,32.8125 L24.53125,24.53125 L22.65625,19.21875 C22.03125,19.21875 21.40625,19.0625 21.40625,19.0625 C20.78125,19.0625 20.78125,17.96875 21.5625,17.96875 C21.5625,17.96875 23.59375,18.125 24.84375,18.125 C26.09375,18.125 28.125,17.96875 28.125,17.96875 C28.75,17.96875 28.90625,18.90625 28.28125,19.0625 C28.28125,19.0625 27.65625,19.0625 26.875,19.21875 L31.40625,32.65625 L32.65625,28.4375 C33.125,26.71875 33.4375,25.46875 33.4375,24.375 L33.4375,24.375 Z M25.15625,26.09375 L21.40625,37.03125 C22.5,37.34375 23.75,37.5 25,37.5 C26.40625,37.5 27.8125,37.1875 29.21875,36.71875 C29.21875,36.71875 29.21875,36.5625 29.0625,36.5625 L25.15625,26.09375 Z M35.9375,19.0625 C35.9375,19.53125 36.09375,19.84375 36.09375,20.3125 C36.09375,21.5625 35.78125,22.96875 35.15625,24.84375 L31.25,35.78125 C35,33.59375 37.5,29.53125 37.5,25 C37.5,22.8125 36.875,20.78125 35.9375,19.0625 L35.9375,19.0625 Z"/>
  </g>
</svg>
